# xmcd
#
# Track frame offsets:
#	150
#	31093
#	71044
#	93484
#	107537
#	128862
#	144770
#	169189
#	205398
#	226582
#	239006
#	263203
#	283709
#	300403
#	319295
#
# Disc length: 4590 seconds
#
# Revision: 0
# Processed by: cddbd v1.4PL0 Copyright (c) Steve Scherf et al.
# Submitted via: EasyCDDAExtractor 4.6.9.1
#
DISCID=cf11ec0f
DTITLE=Stevie Ray Vaughan and Double Trouble - Best
DYEAR=1900
DGENRE=Blues
TTITLE0=Little Wing (Hendrix)
TTITLE1=Riviera Paradise (Vaughan)
TTITLE2=Lenny (Vaughan)
TTITLE3=Gone Home (Harris)
TTITLE4=Couldn't Stand The Wheather (Vaughan)
TTITLE5=Telephone Song (Bramhall_Vaughan)
TTITLE6=Say What (Vaughan)
TTITLE7=Voodoo Chile (Slight Return) (Hendrix)
TTITLE8=Rude Mood (Vaughan)
TTITLE9=Scuttle Buttin' (Vaughan)
TTITLE10=Testifyin' (Clinton_Taylor)
TTITLE11=Come On (King)
TTITLE12=Pride And Joy (Vaughan)
TTITLE13=Crosfire(Carte - Ellsworth_Layton_Shannon_Wynans)
TTITLE14=C.O.D. (Gooden)
EXTD=
EXTT0=
EXTT1=
EXTT2=
EXTT3=
EXTT4=
EXTT5=
EXTT6=
EXTT7=
EXTT8=
EXTT9=
EXTT10=
EXTT11=
EXTT12=
EXTT13=
EXTT14=
PLAYORDER=
